<svg xmlns="http://www.w3.org/2000/svg" viewBox="0 0 512 512">
  <rect width="512" height="512" rx="64" fill="#4f46e5"/>
  <g transform="translate(56,56)">
    <!-- Grid pattern -->
    <rect x="0" y="0" width="100" height="100" fill="#ffffff" stroke="#c7d2fe" stroke-width="3"/>
    <rect x="100" y="0" width="100" height="100" fill="#ef4444" stroke="#c7d2fe" stroke-width="3"/>
    <rect x="200" y="0" width="100" height="100" fill="#ffffff" stroke="#c7d2fe" stroke-width="3"/>
    <rect x="300" y="0" width="100" height="100" fill="#228b22" stroke="#c7d2fe" stroke-width="3"/>

    <rect x="0" y="100" width="100" height="100" fill="#4169e1" stroke="#c7d2fe" stroke-width="3"/>
    <rect x="100" y="100" width="100" height="100" fill="#ffffff" stroke="#c7d2fe" stroke-width="3"/>
    <rect x="200" y="100" width="100" height="100" fill="#ffd700" stroke="#c7d2fe" stroke-width="3"/>
    <rect x="300" y="100" width="100" height="100" fill="#ffffff" stroke="#c7d2fe" stroke-width="3"/>

    <rect x="0" y="200" width="100" height="100" fill="#ffffff" stroke="#c7d2fe" stroke-width="3"/>
    <rect x="100" y="200" width="100" height="100" fill="#ff69b4" stroke="#c7d2fe" stroke-width="3"/>
    <rect x="200" y="200" width="100" height="100" fill="#ffffff" stroke="#c7d2fe" stroke-width="3"/>
    <rect x="300" y="200" width="100" height="100" fill="#ef4444" stroke="#c7d2fe" stroke-width="3"/>

    <rect x="0" y="300" width="100" height="100" fill="#228b22" stroke="#c7d2fe" stroke-width="3"/>
    <rect x="100" y="300" width="100" height="100" fill="#ffffff" stroke="#c7d2fe" stroke-width="3"/>
    <rect x="200" y="300" width="100" height="100" fill="#4169e1" stroke="#c7d2fe" stroke-width="3"/>
    <rect x="300" y="300" width="100" height="100" fill="#ffffff" stroke="#c7d2fe" stroke-width="3"/>

    <!-- Symbols in colored cells -->
    <text x="150" y="65" text-anchor="middle" font-size="60" font-weight="bold" fill="white" font-family="Arial">K</text>
    <text x="350" y="65" text-anchor="middle" font-size="60" font-weight="bold" fill="white" font-family="Arial">I</text>
    <text x="50" y="165" text-anchor="middle" font-size="60" font-weight="bold" fill="white" font-family="Arial">U</text>
    <text x="250" y="165" text-anchor="middle" font-size="60" font-weight="bold" fill="black" font-family="Arial">O</text>
    <text x="150" y="265" text-anchor="middle" font-size="60" font-weight="bold" fill="white" font-family="Arial">+</text>
    <text x="350" y="265" text-anchor="middle" font-size="60" font-weight="bold" fill="white" font-family="Arial">K</text>
    <text x="50" y="365" text-anchor="middle" font-size="60" font-weight="bold" fill="white" font-family="Arial">I</text>
    <text x="250" y="365" text-anchor="middle" font-size="60" font-weight="bold" fill="white" font-family="Arial">U</text>
  </g>
</svg>
